 http://www.shotpix.com/images/19757972178264282104.jpg

General 
http://www.imdb.com/title/tt1496025/
Complete name: Underworld Awakening (2012) 3D Half-SBS.mkv
Format: Matroska
Format version: Version 2
File size: 7.33 GiB
Duration: 1h 28mn
Overall bit rate: 11.9 Mbps
Movie name: Underworld Awakening (2012) 3D Half-SBS
Encoded date: UTC 2012-04-20 06:28:30
Writing application: mkvmerge v5.4.0 ('Piper') built on Mar 10 2012 13:34:39
Writing library: libebml v1.2.3 + libmatroska v1.3.0

Video
ID: 1
Format: AVC
Format/Info: Advanced Video Codec
Format profile: High@L4.1
Format settings, CABAC: Yes
Format settings, ReFrames: 2 frames
Codec ID: V_MPEG4/ISO/AVC
Duration: 1h 28mn
Bit rate: 9 469 Kbps
Width: 1 920 pixels
Height: 1 080 pixels
Display aspect ratio: 16:9
Frame rate: 23.976 fps
Color space: YUV
Chroma subsampling: 4:2:0
Bit depth: 8 bits
Scan type: Progressive
Bits/(Pixel*Frame): 0.190
Stream size: 5.86 GiB (80%)
Writing library: x264 core
Color primaries: BT.709-5, BT.1361, IEC 61966-2-4, SMPTE RP177
Transfer characteristics: BT.709-5, BT.1361
Matrix coefficients: BT.709-5, BT.1361, IEC 61966-2-4 709, SMPTE RP177

Audio #1
ID: 2
Format: DTS
Format/Info: Digital Theater Systems
Codec ID: A_DTS
Duration: 1h 28mn
Bit rate mode: Constant
Bit rate: 1 510 Kbps
Channel(s): 6 channels
Channel positions: Front: L C R, Side: L R, LFE
Sampling rate: 48.0 KHz
Bit depth: 16 bits
Compression mode: Lossy
Stream size: 956 MiB (13%)
Language: English

Audio #2
ID: 3
Format: AC-3
Format/Info: Audio Coding 3
Mode extension: CM (complete main)
Codec ID: A_AC3
Duration: 1h 28mn
Bit rate mode: Constant
Bit rate: 640 Kbps
Channel(s): 6 channels
Channel positions: Front: L C R, Side: L R, LFE
Sampling rate: 48.0 KHz
Bit depth: 16 bits
Compression mode: Lossy
Stream size: 405 MiB (5%)
Language: English 

SCREENS:
 
http://www.shotpix.com/images/07095528190383731034.png
 
http://www.shotpix.com/images/62366249309306256891.png
 
http://www.shotpix.com/images/50932345196214615207.png
 
http://www.shotpix.com/images/52216354801868954210.png